<?xml version="1.0" standalone="no"?>
<!DOCTYPE svg PUBLIC "-//W3C//DTD SVG 20010904//EN"
 "http://www.w3.org/TR/2001/REC-SVG-20010904/DTD/svg10.dtd">
<svg version="1.0" xmlns="http://www.w3.org/2000/svg"
 width="500.000000pt" height="500.000000pt" viewBox="0 0 500.000000 500.000000"
 preserveAspectRatio="xMidYMid meet">

<g transform="translate(0.000000,500.000000) scale(0.100000,-0.100000)"
fill="#000000" stroke="none">
<path d="M1656 3648 c-37 -106 -110 -314 -163 -463 -52 -148 -133 -378 -180
-510 -46 -132 -93 -264 -104 -294 -19 -51 -19 -76 0 -55 4 5 32 77 61 159 29
83 62 174 72 203 l19 52 325 0 324 0 10 -22 c5 -13 30 -81 55 -153 26 -71 56
-156 67 -188 l21 -58 139 2 c138 1 140 1 135 22 -3 16 -501 1348 -552 1480 -6
14 -20 17 -85 17 l-77 0 -67 -192z m74 -113 c43 -135 107 -319 196 -562 41
-111 74 -204 74 -207 0 -4 -142 -6 -316 -6 -297 0 -316 1 -311 18 3 9 33 96
66 192 34 96 103 294 154 438 63 184 94 258 99 245 4 -10 21 -63 38 -118z"/>
<path d="M2360 3080 c0 -5 16 -10 36 -10 50 0 100 -26 124 -65 11 -17 58 -142
105 -276 47 -134 99 -280 114 -324 l29 -80 136 -3 c90 -2 136 1 136 8 0 6 -45
141 -100 301 -139 406 -138 430 32 438 43 2 78 7 78 12 0 5 -149 9 -345 9
-223 0 -345 -4 -345 -10z"/>
<path d="M3420 3081 c0 -5 57 -11 126 -12 123 -4 126 -5 150 -32 33 -38 31
-92 -5 -203 -91 -276 -161 -507 -156 -512 12 -12 24 20 90 228 138 437 156
479 220 506 19 8 62 14 95 14 33 0 60 4 60 10 0 6 -103 10 -290 10 -165 0
-290 -4 -290 -9z"/>
<path d="M3002 1658 c33 -95 70 -201 81 -236 l21 -63 70 3 69 3 74 229 c40
126 71 232 68 235 -10 10 -22 -20 -57 -136 -18 -62 -35 -113 -38 -113 -3 0
-18 48 -34 108 -43 156 -25 142 -181 142 l-134 0 61 -172z"/>
<path d="M1488 1763 c6 -2 18 -2 25 0 6 3 1 5 -13 5 -14 0 -19 -2 -12 -5z"/>
<path d="M1382 1735 c0 -16 2 -22 5 -12 2 9 2 23 0 30 -3 6 -5 -1 -5 -18z"/>
<path d="M1752 1730 c0 -19 2 -27 5 -17 2 9 2 25 0 35 -3 9 -5 1 -5 -18z"/>
<path d="M1892 1730 c0 -14 2 -19 5 -12 2 6 2 18 0 25 -3 6 -5 1 -5 -13z"/>
<path d="M1791 1714 c0 -11 3 -14 6 -6 3 7 2 16 -1 19 -3 4 -6 -2 -5 -13z"/>
<path d="M1058 1713 c7 -3 16 -2 19 1 4 3 -2 6 -13 5 -11 0 -14 -3 -6 -6z"/>
<path d="M1628 1713 c6 -2 18 -2 25 0 6 3 1 5 -13 5 -14 0 -19 -2 -12 -5z"/>
<path d="M1208 1693 c6 -2 18 -2 25 0 6 3 1 5 -13 5 -14 0 -19 -2 -12 -5z"/>
</g>
</svg>
